# xmcd
#
# Track frame offsets:
#	150
#	20780
#	34950
#	60881
#	72098
#	88258
#	102624
#	113047
#	134773
#	162346
#	176820
#	186672
#
# Disc length: 2929 seconds
# Revision: 0
# Processed by: cddbd v1.5.2PL0 Copyright (c) Steve Scherf et al.
# Submitted via: dBpowerAMP V12.0
#
DISCID=b50b6f0c
DTITLE=Jalan Crossland - Portriat of a Fish
DYEAR=20011
DGENRE=Couintry
TTITLE0=Portrait Of A Fish
TTITLE1=Big As You Ever Saw
TTITLE2=Joanne
TTITLE3=Lazy Bones
TTITLE4=I Wanna Die Easy
TTITLE5=Hopelessly Lost
TTITLE6=Colored Aristocracy
TTITLE7=Raggle Taggle Gypsy
TTITLE8=Wino's Lullabye
TTITLE9=Meadowlark Song
TTITLE10=Summer Dresses
TTITLE11=Don Quixote
EXTD=
EXTT0=
EXTT1=
EXTT2=
EXTT3=
EXTT4=
EXTT5=
EXTT6=
EXTT7=
EXTT8=
EXTT9=
EXTT10=
EXTT11=
PLAYORDER=
